<svg xmlns="http://www.w3.org/2000/svg" xmlns:xlink="http://www.w3.org/1999/xlink" width="1080" zoomAndPan="magnify" viewBox="0 0 810 809.999993" height="1080" preserveAspectRatio="xMidYMid meet" version="1.0"><path fill="#7be0fc" d="M 563.027344 533.324219 C 540.316406 561.125 520.109375 596.957031 539.601562 621.328125 C 545.695312 628.945312 553.929688 633.15625 562.785156 633.175781 C 571.640625 633.195312 579.898438 629.03125 586.027344 621.441406 C 605.636719 597.164062 585.605469 561.234375 563.027344 533.324219 Z M 563.027344 533.324219 " fill-opacity="1" fill-rule="nonzero"/><path fill="#43d2e8" d="M 563.027344 533.324219 C 574.847656 548.367188 579.167969 569.761719 574.542969 588.265625 C 572.886719 594.890625 570.117188 601.347656 566.25 606.984375 C 562.734375 612.105469 558.074219 616.246094 551.992188 617.960938 C 546.996094 619.371094 541.53125 619.050781 536.730469 617.0625 C 536.859375 617.117188 537.039062 617.574219 537.109375 617.691406 C 537.324219 618.050781 537.53125 618.417969 537.75 618.773438 C 538.644531 620.226562 539.800781 621.59375 540.929688 622.871094 C 541.972656 624.050781 543.109375 625.144531 544.324219 626.152344 C 546.765625 628.175781 549.511719 629.839844 552.441406 631.042969 C 554.300781 631.804688 556.238281 632.386719 558.214844 632.742188 C 568.292969 634.578125 578.472656 630.089844 585.109375 622.546875 C 590.042969 616.941406 593.042969 609.707031 593.734375 602.289062 C 594.425781 594.875 593.03125 587.40625 590.722656 580.378906 C 587.9375 571.917969 583.816406 563.929688 579.199219 556.335938 C 574.320312 548.324219 568.824219 540.695312 563.027344 533.324219 Z M 563.027344 533.324219 " fill-opacity="1" fill-rule="nonzero"/><path fill="#7be0fc" d="M 445.585938 524.109375 C 428.15625 544.9375 412.546875 571.867188 427.070312 590.480469 C 431.613281 596.300781 437.808594 599.554688 444.507812 599.652344 C 451.207031 599.75 457.492188 596.667969 462.195312 590.980469 C 477.25 572.789062 462.417969 545.425781 445.585938 524.109375 Z M 445.585938 524.109375 " fill-opacity="1" fill-rule="nonzero"/><path fill="#43d2e8" d="M 445.585938 524.109375 C 454.394531 535.59375 457.46875 551.820312 453.804688 565.78125 C 452.492188 570.777344 450.339844 575.632812 447.359375 579.867188 C 444.65625 583.710938 441.089844 586.800781 436.476562 588.042969 C 432.683594 589.066406 428.550781 588.773438 424.9375 587.226562 C 425.035156 587.269531 425.167969 587.621094 425.21875 587.707031 C 425.378906 587.980469 425.527344 588.261719 425.691406 588.53125 C 426.355469 589.640625 427.21875 590.683594 428.0625 591.660156 C 428.839844 592.5625 429.691406 593.402344 430.601562 594.175781 C 432.425781 595.730469 434.492188 597.007812 436.699219 597.949219 C 438.097656 598.539062 439.558594 598.996094 441.050781 599.285156 C 448.660156 600.765625 456.402344 597.460938 461.492188 591.8125 C 465.273438 587.617188 467.605469 582.171875 468.199219 576.5625 C 468.789062 570.960938 467.800781 565.296875 466.113281 559.960938 C 464.082031 553.535156 461.039062 547.453125 457.609375 541.667969 C 453.996094 535.558594 449.902344 529.738281 445.585938 524.109375 Z M 445.585938 524.109375 " fill-opacity="1" fill-rule="nonzero"/><path fill="#7be0fc" d="M 237.839844 529.863281 C 221.863281 549.320312 207.625 574.414062 221.25 591.539062 C 225.511719 596.894531 231.277344 599.859375 237.488281 599.890625 C 243.703125 599.921875 249.5 597.015625 253.8125 591.703125 C 267.609375 574.710938 253.621094 549.476562 237.839844 529.863281 Z M 237.839844 529.863281 " fill-opacity="1" fill-rule="nonzero"/><path fill="#43d2e8" d="M 237.839844 529.863281 C 246.101562 540.433594 249.089844 555.445312 245.816406 568.417969 C 244.640625 573.0625 242.6875 577.582031 239.964844 581.53125 C 237.488281 585.117188 234.214844 588.011719 229.949219 589.203125 C 226.441406 590.183594 222.605469 589.949219 219.246094 588.546875 C 219.335938 588.582031 219.460938 588.90625 219.511719 588.988281 C 219.660156 589.242188 219.804688 589.5 219.957031 589.75 C 220.582031 590.769531 221.390625 591.730469 222.179688 592.628906 C 222.910156 593.457031 223.707031 594.230469 224.554688 594.9375 C 226.261719 596.363281 228.183594 597.53125 230.242188 598.382812 C 231.542969 598.921875 232.898438 599.328125 234.285156 599.585938 C 241.351562 600.890625 248.5 597.761719 253.164062 592.484375 C 256.636719 588.558594 258.75 583.492188 259.253906 578.292969 C 259.75 573.09375 258.789062 567.851562 257.175781 562.921875 C 255.238281 556.980469 252.363281 551.371094 249.136719 546.039062 C 245.730469 540.402344 241.886719 535.042969 237.839844 529.863281 Z M 237.839844 529.863281 " fill-opacity="1" fill-rule="nonzero"/><path fill="#7be0fc" d="M 342.453125 539.324219 C 311.957031 575.585938 284.609375 622.496094 309.875 655.027344 C 317.773438 665.199219 328.5625 670.90625 340.25 671.101562 C 351.9375 671.296875 362.910156 665.953125 371.144531 656.054688 C 397.484375 624.386719 371.722656 576.585938 342.453125 539.324219 Z M 342.453125 539.324219 " fill-opacity="1" fill-rule="nonzero"/><path fill="#43d2e8" d="M 342.453125 539.324219 C 357.769531 559.402344 363.066406 587.71875 356.613281 612.054688 C 354.304688 620.765625 350.527344 629.234375 345.3125 636.601562 C 340.574219 643.296875 334.347656 648.671875 326.289062 650.820312 C 319.667969 652.585938 312.457031 652.058594 306.164062 649.347656 C 306.332031 649.421875 306.5625 650.03125 306.648438 650.1875 C 306.929688 650.664062 307.191406 651.152344 307.472656 651.628906 C 308.625 653.558594 310.125 655.382812 311.59375 657.09375 C 312.949219 658.671875 314.429688 660.140625 316.011719 661.488281 C 319.191406 664.207031 322.785156 666.449219 326.632812 668.097656 C 329.070312 669.136719 331.617188 669.941406 334.21875 670.453125 C 347.488281 673.0625 361.007812 667.332031 369.90625 657.503906 C 376.519531 650.195312 380.617188 640.710938 381.671875 630.929688 C 382.726562 621.160156 381.027344 611.273438 378.109375 601.957031 C 374.59375 590.738281 369.304688 580.117188 363.351562 570.007812 C 357.074219 559.335938 349.960938 549.167969 342.453125 539.324219 Z M 342.453125 539.324219 " fill-opacity="1" fill-rule="nonzero"/><path fill="#7be0fc" d="M 607.539062 252.542969 C 606.332031 252.542969 605.144531 252.632812 603.957031 252.722656 L 592.769531 253.316406 L 589.609375 246.144531 C 563.863281 187.707031 507.613281 153.015625 446.316406 153.015625 C 372.664062 153.015625 302.660156 206.277344 290.023438 288.449219 L 278.742188 285.015625 C 269.476562 282.199219 260.035156 280.765625 250.675781 280.765625 C 200.429688 280.765625 150.488281 321.515625 149.753906 379.214844 L 140.121094 379.363281 C 109.78125 379.824219 81 406.839844 85.09375 445.367188 C 88.511719 477.488281 110.148438 503.957031 140.941406 503.957031 L 606.269531 503.957031 C 671.519531 503.957031 720.425781 448.128906 724.605469 379.8125 C 728.933594 309.144531 672.789062 252.542969 607.539062 252.542969 Z M 607.539062 252.542969 " fill-opacity="1" fill-rule="nonzero"/><path fill="#43d2e8" d="M 600.121094 252.832031 C 597.980469 252.886719 594.886719 253.210938 592.769531 253.316406 C 554.757812 159.109375 459.761719 136.949219 389.820312 163.671875 C 467.796875 192.050781 535.265625 270.675781 535.265625 336.417969 C 535.265625 406.363281 481.140625 466.015625 392.59375 503.957031 L 600.121094 503.957031 C 668.101562 507.746094 720.375 450.203125 724.84375 378.292969 C 729 311.328125 676.582031 250.855469 600.121094 252.832031 Z M 600.121094 252.832031 " fill-opacity="1" fill-rule="nonzero"/><path fill="#ffffff" d="M 408.675781 184.484375 L 408.675781 184.492188 C 408.988281 190.738281 414.519531 195.414062 420.726562 194.679688 C 441.472656 192.214844 462.417969 194.050781 482.242188 199.886719 C 487.304688 201.375 492.699219 198.90625 494.964844 194.140625 C 497.824219 188.125 494.613281 180.992188 488.222656 179.117188 C 465.660156 172.496094 441.820312 170.40625 418.207031 173.203125 C 412.558594 173.871094 408.390625 178.800781 408.675781 184.484375 Z M 408.675781 184.484375 " fill-opacity="1" fill-rule="nonzero"/><path fill="#ffffff" d="M 538.875 210.910156 C 535.386719 207.613281 531.773438 204.46875 528.046875 201.484375 C 523.136719 197.554688 515.890625 198.738281 512.414062 203.984375 L 512.347656 204.089844 C 509.277344 208.722656 510.253906 214.929688 514.589844 218.410156 C 517.808594 220.996094 520.933594 223.71875 523.949219 226.574219 C 528.386719 230.769531 535.382812 230.539062 539.441406 225.976562 L 539.527344 225.882812 C 543.390625 221.539062 543.097656 214.90625 538.875 210.910156 Z M 538.875 210.910156 " fill-opacity="1" fill-rule="nonzero"/></svg>