<svg xmlns="http://www.w3.org/2000/svg" xmlns:xlink="http://www.w3.org/1999/xlink" width="1080" zoomAndPan="magnify" viewBox="0 0 810 809.999993" height="1080" preserveAspectRatio="xMidYMid meet" version="1.0"><defs><clipPath id="9c8b2f4d60"><path d="M 250 92.070312 L 271 92.070312 L 271 116 L 250 116 Z M 250 92.070312 " clip-rule="nonzero"/></clipPath></defs><g clip-path="url(#9c8b2f4d60)"><path fill="#ffcf00" d="M 270.335938 101.648438 L 270.574219 104.671875 C 271.003906 110.128906 266.925781 114.902344 261.460938 115.332031 C 256 115.761719 251.226562 111.683594 250.796875 106.226562 L 250.558594 103.203125 C 250.128906 97.742188 254.207031 92.972656 259.667969 92.542969 C 265.128906 92.113281 269.90625 96.191406 270.335938 101.648438 Z M 270.335938 101.648438 " fill-opacity="1" fill-rule="nonzero"/></g><path fill="#ffcf00" d="M 146.375 153.019531 L 185.289062 186.242188 C 189.453125 189.796875 189.945312 196.054688 186.386719 200.21875 C 182.828125 204.378906 176.570312 204.871094 172.402344 201.316406 L 133.488281 168.09375 C 129.320312 164.539062 128.828125 158.28125 132.386719 154.117188 C 135.945312 149.953125 142.207031 149.460938 146.375 153.019531 Z M 146.375 153.019531 " fill-opacity="1" fill-rule="nonzero"/><path fill="#ffcf00" d="M 90.53125 281.824219 L 141.554688 277.816406 C 147.015625 277.386719 151.792969 281.460938 152.222656 286.921875 C 152.652344 292.378906 148.574219 297.152344 143.109375 297.582031 L 92.085938 301.589844 C 86.625 302.019531 81.851562 297.941406 81.421875 292.484375 C 80.992188 287.027344 85.074219 282.253906 90.53125 281.824219 Z M 90.53125 281.824219 " fill-opacity="1" fill-rule="nonzero"/><path fill="#ffcf00" d="M 402.082031 144.082031 L 368.128906 183.808594 C 364.765625 187.742188 358.851562 188.207031 354.917969 184.847656 L 354.082031 184.136719 C 350.148438 180.777344 349.683594 174.867188 353.042969 170.933594 L 386.996094 131.207031 C 390.359375 127.273438 396.273438 126.808594 400.210938 130.167969 L 401.042969 130.878906 C 404.976562 134.238281 405.441406 140.152344 402.082031 144.082031 Z M 402.082031 144.082031 " fill-opacity="1" fill-rule="nonzero"/><path fill="#ffcf00" d="M 273.363281 140.125 L 274.347656 152.644531 C 274.777344 158.101562 270.699219 162.875 265.234375 163.304688 C 259.773438 163.734375 255 159.65625 254.570312 154.199219 L 253.585938 141.679688 C 253.15625 136.222656 257.234375 131.449219 262.695312 131.019531 C 268.15625 130.589844 272.933594 134.667969 273.363281 140.125 Z M 273.363281 140.125 " fill-opacity="1" fill-rule="nonzero"/><path fill="#ffcf00" d="M 393.621094 298.460938 C 393.621094 300.253906 393.574219 302.046875 393.488281 303.835938 C 393.398438 305.625 393.265625 307.414062 393.089844 309.195312 C 392.914062 310.980469 392.691406 312.757812 392.429688 314.53125 C 392.164062 316.304688 391.855469 318.070312 391.503906 319.828125 C 391.152344 321.585938 390.757812 323.335938 390.320312 325.074219 C 389.882812 326.8125 389.402344 328.539062 388.878906 330.253906 C 388.355469 331.96875 387.792969 333.671875 387.183594 335.359375 C 386.578125 337.046875 385.929688 338.71875 385.238281 340.375 C 384.550781 342.03125 383.820312 343.667969 383.050781 345.289062 C 382.277344 346.910156 381.46875 348.507812 380.621094 350.089844 C 379.769531 351.671875 378.882812 353.230469 377.957031 354.769531 C 377.03125 356.304688 376.066406 357.820312 375.066406 359.308594 C 374.066406 360.800781 373.027344 362.265625 371.953125 363.703125 C 370.882812 365.144531 369.773438 366.554688 368.628906 367.941406 C 367.488281 369.328125 366.308594 370.683594 365.101562 372.011719 C 363.890625 373.339844 362.648438 374.636719 361.375 375.90625 C 360.101562 377.171875 358.796875 378.410156 357.460938 379.613281 C 356.125 380.816406 354.761719 381.988281 353.371094 383.125 C 351.976562 384.261719 350.554688 385.363281 349.109375 386.429688 C 347.660156 387.5 346.1875 388.53125 344.691406 389.527344 C 343.191406 390.523438 341.671875 391.480469 340.125 392.402344 C 338.582031 393.324219 337.011719 394.207031 335.425781 395.050781 C 333.835938 395.898438 332.226562 396.703125 330.597656 397.46875 C 328.96875 398.234375 327.324219 398.960938 325.65625 399.648438 C 323.992188 400.332031 322.3125 400.976562 320.617188 401.582031 C 318.921875 402.1875 317.210938 402.746094 315.484375 403.269531 C 313.761719 403.789062 312.027344 404.265625 310.277344 404.703125 C 308.53125 405.136719 306.773438 405.53125 305.003906 405.878906 C 303.238281 406.230469 301.464844 406.535156 299.679688 406.800781 C 297.898438 407.0625 296.113281 407.28125 294.320312 407.457031 C 292.523438 407.632812 290.730469 407.765625 288.929688 407.851562 C 287.128906 407.941406 285.328125 407.984375 283.527344 407.984375 C 281.726562 407.984375 279.925781 407.941406 278.125 407.851562 C 276.324219 407.765625 274.53125 407.632812 272.738281 407.457031 C 270.945312 407.28125 269.15625 407.0625 267.375 406.800781 C 265.589844 406.535156 263.816406 406.230469 262.050781 405.878906 C 260.28125 405.53125 258.523438 405.136719 256.777344 404.703125 C 255.03125 404.265625 253.292969 403.789062 251.570312 403.269531 C 249.84375 402.746094 248.136719 402.1875 246.4375 401.582031 C 244.742188 400.976562 243.0625 400.332031 241.398438 399.648438 C 239.730469 398.960938 238.085938 398.234375 236.457031 397.46875 C 234.828125 396.703125 233.21875 395.898438 231.628906 395.050781 C 230.042969 394.207031 228.472656 393.324219 226.929688 392.402344 C 225.382812 391.480469 223.863281 390.523438 222.363281 389.527344 C 220.867188 388.53125 219.394531 387.5 217.945312 386.429688 C 216.5 385.363281 215.078125 384.261719 213.6875 383.125 C 212.292969 381.988281 210.929688 380.816406 209.59375 379.613281 C 208.257812 378.410156 206.953125 377.171875 205.679688 375.90625 C 204.40625 374.636719 203.164062 373.339844 201.953125 372.011719 C 200.746094 370.683594 199.566406 369.328125 198.425781 367.941406 C 197.28125 366.554688 196.175781 365.144531 195.101562 363.703125 C 194.027344 362.265625 192.988281 360.800781 191.988281 359.308594 C 190.988281 357.820312 190.023438 356.304688 189.097656 354.769531 C 188.171875 353.230469 187.285156 351.671875 186.433594 350.089844 C 185.585938 348.507812 184.777344 346.910156 184.003906 345.289062 C 183.234375 343.667969 182.503906 342.03125 181.816406 340.375 C 181.125 338.71875 180.476562 337.046875 179.871094 335.359375 C 179.265625 333.671875 178.699219 331.96875 178.175781 330.253906 C 177.652344 328.539062 177.171875 326.8125 176.734375 325.074219 C 176.296875 323.335938 175.902344 321.585938 175.550781 319.828125 C 175.199219 318.070312 174.890625 316.304688 174.625 314.53125 C 174.363281 312.757812 174.140625 310.980469 173.964844 309.195312 C 173.789062 307.414062 173.65625 305.625 173.566406 303.835938 C 173.480469 302.046875 173.433594 300.253906 173.433594 298.460938 C 173.433594 296.667969 173.480469 294.878906 173.566406 293.085938 C 173.65625 291.296875 173.789062 289.511719 173.964844 287.726562 C 174.140625 285.941406 174.363281 284.164062 174.625 282.390625 C 174.890625 280.617188 175.199219 278.851562 175.550781 277.09375 C 175.902344 275.335938 176.296875 273.589844 176.734375 271.851562 C 177.171875 270.109375 177.652344 268.382812 178.175781 266.667969 C 178.699219 264.953125 179.265625 263.253906 179.871094 261.566406 C 180.476562 259.878906 181.125 258.207031 181.816406 256.550781 C 182.503906 254.894531 183.234375 253.253906 184.003906 251.636719 C 184.777344 250.015625 185.585938 248.414062 186.433594 246.832031 C 187.285156 245.253906 188.171875 243.691406 189.097656 242.15625 C 190.023438 240.617188 190.988281 239.105469 191.988281 237.613281 C 192.988281 236.125 194.027344 234.660156 195.101562 233.21875 C 196.175781 231.78125 197.28125 230.367188 198.425781 228.980469 C 199.566406 227.597656 200.746094 226.238281 201.953125 224.910156 C 203.164062 223.582031 204.40625 222.285156 205.679688 221.019531 C 206.953125 219.75 208.257812 218.515625 209.59375 217.3125 C 210.929688 216.105469 212.292969 214.9375 213.6875 213.800781 C 215.078125 212.664062 216.5 211.558594 217.945312 210.492188 C 219.394531 209.425781 220.867188 208.394531 222.363281 207.398438 C 223.863281 206.402344 225.382812 205.441406 226.929688 204.519531 C 228.472656 203.601562 230.042969 202.714844 231.628906 201.871094 C 233.21875 201.027344 234.828125 200.222656 236.457031 199.453125 C 238.085938 198.6875 239.734375 197.960938 241.398438 197.277344 C 243.0625 196.589844 244.742188 195.945312 246.4375 195.339844 C 248.136719 194.738281 249.84375 194.175781 251.570312 193.65625 C 253.292969 193.136719 255.03125 192.65625 256.777344 192.222656 C 258.523438 191.785156 260.28125 191.394531 262.050781 191.042969 C 263.816406 190.695312 265.589844 190.386719 267.375 190.125 C 269.15625 189.863281 270.945312 189.640625 272.738281 189.464844 C 274.53125 189.289062 276.324219 189.160156 278.125 189.070312 C 279.925781 188.984375 281.726562 188.9375 283.527344 188.9375 C 285.328125 188.9375 287.128906 188.984375 288.929688 189.070312 C 290.730469 189.160156 292.523438 189.289062 294.320312 189.464844 C 296.113281 189.640625 297.898438 189.863281 299.679688 190.125 C 301.464844 190.386719 303.238281 190.695312 305.003906 191.042969 C 306.773438 191.394531 308.53125 191.785156 310.277344 192.222656 C 312.027344 192.65625 313.761719 193.136719 315.484375 193.65625 C 317.210938 194.175781 318.921875 194.738281 320.617188 195.339844 C 322.3125 195.945312 323.992188 196.589844 325.65625 197.277344 C 327.324219 197.960938 328.96875 198.6875 330.597656 199.453125 C 332.226562 200.222656 333.835938 201.027344 335.425781 201.871094 C 337.011719 202.714844 338.582031 203.601562 340.125 204.519531 C 341.671875 205.441406 343.191406 206.402344 344.691406 207.398438 C 346.1875 208.394531 347.660156 209.425781 349.109375 210.492188 C 350.554688 211.558594 351.976562 212.664062 353.371094 213.800781 C 354.761719 214.9375 356.125 216.105469 357.460938 217.3125 C 358.796875 218.515625 360.101562 219.75 361.375 221.019531 C 362.648438 222.285156 363.890625 223.582031 365.101562 224.910156 C 366.308594 226.238281 367.488281 227.597656 368.628906 228.980469 C 369.773438 230.367188 370.882812 231.78125 371.953125 233.21875 C 373.027344 234.660156 374.066406 236.125 375.066406 237.613281 C 376.066406 239.105469 377.03125 240.617188 377.957031 242.15625 C 378.882812 243.691406 379.769531 245.253906 380.621094 246.832031 C 381.46875 248.414062 382.277344 250.015625 383.050781 251.636719 C 383.820312 253.253906 384.550781 254.894531 385.238281 256.550781 C 385.929688 258.207031 386.578125 259.878906 387.183594 261.566406 C 387.792969 263.253906 388.355469 264.953125 388.878906 266.667969 C 389.402344 268.382812 389.882812 270.109375 390.320312 271.851562 C 390.757812 273.589844 391.152344 275.335938 391.503906 277.09375 C 391.855469 278.851562 392.164062 280.617188 392.429688 282.390625 C 392.691406 284.164062 392.914062 285.941406 393.089844 287.726562 C 393.265625 289.511719 393.398438 291.296875 393.488281 293.085938 C 393.574219 294.878906 393.621094 296.667969 393.621094 298.460938 Z M 393.621094 298.460938 " fill-opacity="1" fill-rule="nonzero"/><path fill="#ffbe00" d="M 325.890625 197.347656 C 334.957031 213.261719 340.136719 231.65625 340.136719 251.253906 C 340.136719 311.742188 290.84375 360.777344 230.042969 360.777344 C 215.03125 360.777344 200.71875 357.785156 187.679688 352.371094 C 206.589844 385.574219 242.425781 407.984375 283.527344 407.984375 C 344.328125 407.984375 393.621094 358.949219 393.621094 298.460938 C 393.621094 252.910156 365.664062 213.859375 325.890625 197.347656 Z M 325.890625 197.347656 " fill-opacity="1" fill-rule="nonzero"/><path fill="#ffffff" d="M 343.25 221.949219 C 332.800781 213.753906 320.851562 207.496094 308.007812 203.621094 C 303.484375 202.257812 298.664062 204.554688 296.964844 208.945312 C 295.324219 213.1875 297.664062 217.9375 302.054688 219.195312 C 313.179688 222.375 323.53125 227.667969 332.578125 234.667969 C 335.441406 236.886719 339.394531 237.085938 342.464844 235.15625 C 342.488281 235.140625 342.511719 235.125 342.535156 235.109375 C 347.261719 232.136719 347.640625 225.394531 343.25 221.949219 Z M 343.25 221.949219 " fill-opacity="1" fill-rule="nonzero"/><path fill="#7be0fc" d="M 575.605469 588.453125 C 554.617188 614.128906 535.941406 647.222656 553.953125 669.730469 C 559.585938 676.765625 567.195312 680.652344 575.378906 680.671875 C 583.566406 680.691406 591.195312 676.84375 596.859375 669.832031 C 614.980469 647.410156 596.46875 614.226562 575.605469 588.453125 Z M 575.605469 588.453125 " fill-opacity="1" fill-rule="nonzero"/><path fill="#43d2e8" d="M 575.605469 588.453125 C 586.527344 602.347656 590.519531 622.105469 586.246094 639.195312 C 584.714844 645.3125 582.15625 651.277344 578.582031 656.480469 C 575.332031 661.214844 571.027344 665.035156 565.40625 666.621094 C 560.789062 667.921875 555.734375 667.625 551.300781 665.789062 C 551.421875 665.839844 551.585938 666.265625 551.652344 666.371094 C 551.851562 666.703125 552.039062 667.042969 552.246094 667.371094 C 553.074219 668.710938 554.140625 669.976562 555.183594 671.15625 C 556.148438 672.246094 557.199219 673.257812 558.320312 674.1875 C 560.574219 676.054688 563.113281 677.589844 565.824219 678.703125 C 567.539062 679.40625 569.328125 679.945312 571.160156 680.273438 C 580.472656 681.96875 589.878906 677.824219 596.011719 670.859375 C 600.570312 665.679688 603.34375 659 603.984375 652.148438 C 604.621094 645.304688 603.335938 638.402344 601.199219 631.914062 C 598.625 624.101562 594.816406 616.722656 590.550781 609.710938 C 586.039062 602.304688 580.957031 595.261719 575.605469 588.453125 Z M 575.605469 588.453125 " fill-opacity="1" fill-rule="nonzero"/><path fill="#7be0fc" d="M 467.070312 579.941406 C 450.960938 599.175781 436.535156 624.050781 449.960938 641.238281 C 454.15625 646.613281 459.878906 649.621094 466.070312 649.710938 C 472.265625 649.800781 478.070312 646.957031 482.417969 641.703125 C 496.332031 624.902344 482.625 599.628906 467.070312 579.941406 Z M 467.070312 579.941406 " fill-opacity="1" fill-rule="nonzero"/><path fill="#43d2e8" d="M 467.070312 579.941406 C 475.210938 590.550781 478.050781 605.535156 474.664062 618.429688 C 473.449219 623.042969 471.460938 627.53125 468.710938 631.4375 C 466.207031 634.988281 462.914062 637.84375 458.652344 638.992188 C 455.144531 639.933594 451.324219 639.664062 447.988281 638.238281 C 448.078125 638.277344 448.199219 638.597656 448.246094 638.679688 C 448.394531 638.933594 448.53125 639.191406 448.683594 639.441406 C 449.296875 640.464844 450.09375 641.429688 450.871094 642.332031 C 451.59375 643.164062 452.378906 643.941406 453.21875 644.65625 C 454.90625 646.089844 456.8125 647.269531 458.855469 648.136719 C 460.148438 648.6875 461.496094 649.105469 462.875 649.375 C 469.90625 650.742188 477.0625 647.6875 481.765625 642.472656 C 485.261719 638.59375 487.417969 633.566406 487.964844 628.386719 C 488.507812 623.214844 487.59375 617.980469 486.039062 613.050781 C 484.160156 607.117188 481.347656 601.5 478.179688 596.15625 C 474.839844 590.515625 471.058594 585.140625 467.070312 579.941406 Z M 467.070312 579.941406 " fill-opacity="1" fill-rule="nonzero"/><path fill="#7be0fc" d="M 275.082031 585.253906 C 260.316406 603.222656 247.15625 626.402344 259.753906 642.21875 C 263.691406 647.164062 269.019531 649.902344 274.757812 649.929688 C 280.5 649.960938 285.855469 647.273438 289.84375 642.367188 C 302.59375 626.675781 289.667969 603.371094 275.082031 585.253906 Z M 275.082031 585.253906 " fill-opacity="1" fill-rule="nonzero"/><path fill="#43d2e8" d="M 275.082031 585.253906 C 282.71875 595.019531 285.480469 608.882812 282.453125 620.863281 C 281.367188 625.148438 279.5625 629.324219 277.046875 632.972656 C 274.761719 636.285156 271.730469 638.957031 267.789062 640.058594 C 264.550781 640.964844 261.003906 640.746094 257.902344 639.453125 C 257.984375 639.488281 258.101562 639.789062 258.144531 639.863281 C 258.285156 640.09375 258.417969 640.332031 258.558594 640.566406 C 259.136719 641.503906 259.878906 642.394531 260.613281 643.222656 C 261.285156 643.992188 262.019531 644.699219 262.808594 645.355469 C 264.382812 646.671875 266.160156 647.753906 268.0625 648.535156 C 269.261719 649.035156 270.519531 649.410156 271.800781 649.648438 C 278.328125 650.851562 284.933594 647.964844 289.246094 643.089844 C 292.453125 639.464844 294.410156 634.785156 294.871094 629.980469 C 295.332031 625.179688 294.441406 620.339844 292.953125 615.785156 C 291.164062 610.300781 288.507812 605.121094 285.527344 600.195312 C 282.375 594.988281 278.824219 590.039062 275.082031 585.253906 Z M 275.082031 585.253906 " fill-opacity="1" fill-rule="nonzero"/><path fill="#7be0fc" d="M 371.761719 593.996094 C 343.578125 627.484375 318.304688 670.808594 341.652344 700.855469 C 348.949219 710.25 358.921875 715.519531 369.722656 715.699219 C 380.527344 715.878906 390.667969 710.945312 398.277344 701.800781 C 422.617188 672.554688 398.808594 628.40625 371.761719 593.996094 Z M 371.761719 593.996094 " fill-opacity="1" fill-rule="nonzero"/><path fill="#43d2e8" d="M 371.761719 593.996094 C 385.917969 612.535156 390.808594 638.691406 384.84375 661.164062 C 382.710938 669.210938 379.21875 677.03125 374.398438 683.835938 C 370.023438 690.019531 364.269531 694.984375 356.820312 696.96875 C 350.703125 698.601562 344.039062 698.109375 338.222656 695.609375 C 338.378906 695.675781 338.589844 696.242188 338.671875 696.382812 C 338.929688 696.824219 339.167969 697.273438 339.433594 697.714844 C 340.496094 699.496094 341.882812 701.183594 343.238281 702.761719 C 344.492188 704.21875 345.859375 705.574219 347.320312 706.820312 C 350.261719 709.332031 353.582031 711.402344 357.136719 712.921875 C 359.390625 713.886719 361.742188 714.625 364.148438 715.101562 C 376.410156 717.511719 388.902344 712.21875 397.128906 703.140625 C 403.242188 696.390625 407.027344 687.628906 408 678.597656 C 408.976562 669.574219 407.40625 660.441406 404.707031 651.839844 C 401.460938 641.476562 396.574219 631.667969 391.074219 622.335938 C 385.273438 612.476562 378.699219 603.082031 371.761719 593.996094 Z M 371.761719 593.996094 " fill-opacity="1" fill-rule="nonzero"/><path fill="#7ce2ff" d="M 616.738281 329.132812 C 615.621094 329.132812 614.523438 329.214844 613.429688 329.296875 L 603.089844 329.847656 L 600.167969 323.222656 C 576.375 269.25 524.394531 237.210938 467.746094 237.210938 C 399.679688 237.210938 334.988281 286.402344 323.308594 362.296875 L 312.878906 359.125 C 304.320312 356.523438 295.59375 355.199219 286.945312 355.199219 C 240.507812 355.199219 194.355469 392.832031 193.675781 446.121094 L 184.773438 446.257812 C 156.738281 446.683594 130.136719 471.636719 133.925781 507.21875 C 137.078125 536.882812 157.074219 561.328125 185.535156 561.328125 L 615.566406 561.328125 C 675.867188 561.328125 721.0625 509.769531 724.925781 446.671875 C 728.921875 381.40625 677.039062 329.132812 616.738281 329.132812 Z M 616.738281 329.132812 " fill-opacity="1" fill-rule="nonzero"/><path fill="#41d4ea" d="M 609.882812 329.398438 C 607.90625 329.449219 605.042969 329.75 603.089844 329.84375 C 567.957031 242.839844 480.167969 222.371094 415.535156 247.050781 C 487.597656 273.261719 549.949219 345.878906 549.949219 406.59375 C 549.949219 471.195312 499.929688 526.289062 418.097656 561.328125 L 609.882812 561.328125 C 672.707031 564.828125 721.015625 511.683594 725.144531 445.269531 C 728.984375 383.421875 680.542969 327.574219 609.882812 329.398438 Z M 609.882812 329.398438 " fill-opacity="1" fill-rule="nonzero"/><path fill="#ffffff" d="M 432.957031 266.273438 L 432.957031 266.285156 C 433.25 272.050781 438.359375 276.371094 444.097656 275.691406 C 463.269531 273.414062 482.625 275.113281 500.945312 280.5 C 505.625 281.875 510.609375 279.597656 512.703125 275.191406 C 515.347656 269.636719 512.378906 263.050781 506.472656 261.316406 C 485.621094 255.203125 463.589844 253.273438 441.765625 255.855469 C 436.546875 256.472656 432.695312 261.027344 432.957031 266.273438 Z M 432.957031 266.273438 " fill-opacity="1" fill-rule="nonzero"/><path fill="#ffffff" d="M 553.28125 290.679688 C 550.058594 287.632812 546.71875 284.730469 543.277344 281.976562 C 538.738281 278.34375 532.042969 279.4375 528.828125 284.285156 L 528.765625 284.378906 C 525.925781 288.660156 526.832031 294.390625 530.835938 297.605469 C 533.8125 299.996094 536.699219 302.507812 539.488281 305.148438 C 543.585938 309.019531 550.054688 308.808594 553.804688 304.597656 L 553.882812 304.511719 C 557.457031 300.496094 557.1875 294.371094 553.28125 290.679688 Z M 553.28125 290.679688 " fill-opacity="1" fill-rule="nonzero"/></svg>