<svg xmlns="http://www.w3.org/2000/svg" xmlns:xlink="http://www.w3.org/1999/xlink" width="1080" zoomAndPan="magnify" viewBox="0 0 810 809.999993" height="1080" preserveAspectRatio="xMidYMid meet" version="1.0"><defs><clipPath id="5f0ffe4e3e"><path d="M 387 610 L 422 610 L 422 729 L 387 729 Z M 387 610 " clip-rule="nonzero"/></clipPath><clipPath id="7cf464a76f"><path d="M 610 388 L 729 388 L 729 423 L 610 423 Z M 610 388 " clip-rule="nonzero"/></clipPath></defs><path fill="#ffcf00" d="M 578.894531 404.25 C 578.894531 407.082031 578.824219 409.910156 578.683594 412.738281 C 578.546875 415.566406 578.335938 418.386719 578.058594 421.203125 C 577.777344 424.019531 577.429688 426.828125 577.011719 429.628906 C 576.597656 432.429688 576.109375 435.21875 575.554688 437.992188 C 575 440.769531 574.378906 443.53125 573.6875 446.277344 C 572.996094 449.023438 572.238281 451.75 571.410156 454.457031 C 570.585938 457.167969 569.695312 459.855469 568.738281 462.519531 C 567.777344 465.183594 566.753906 467.824219 565.667969 470.441406 C 564.578125 473.054688 563.425781 475.640625 562.210938 478.203125 C 560.996094 480.761719 559.71875 483.289062 558.375 485.785156 C 557.035156 488.28125 555.632812 490.742188 554.171875 493.171875 C 552.710938 495.597656 551.191406 497.988281 549.609375 500.34375 C 548.03125 502.695312 546.394531 505.011719 544.699219 507.285156 C 543.003906 509.558594 541.257812 511.789062 539.453125 513.976562 C 537.648438 516.164062 535.789062 518.308594 533.882812 520.402344 C 531.972656 522.5 530.011719 524.550781 528 526.550781 C 525.988281 528.554688 523.929688 530.503906 521.824219 532.40625 C 519.714844 534.308594 517.5625 536.15625 515.367188 537.953125 C 513.167969 539.746094 510.925781 541.488281 508.640625 543.175781 C 506.359375 544.859375 504.035156 546.488281 501.667969 548.0625 C 499.304688 549.636719 496.902344 551.148438 494.464844 552.605469 C 492.023438 554.058594 489.550781 555.453125 487.042969 556.789062 C 484.535156 558.121094 481.996094 559.394531 479.425781 560.605469 C 476.855469 561.816406 474.253906 562.960938 471.628906 564.046875 C 469 565.128906 466.347656 566.148438 463.671875 567.101562 C 460.992188 568.054688 458.292969 568.941406 455.574219 569.765625 C 452.851562 570.585938 450.113281 571.339844 447.351562 572.027344 C 444.59375 572.714844 441.820312 573.335938 439.03125 573.886719 C 436.242188 574.441406 433.441406 574.925781 430.628906 575.339844 C 427.816406 575.753906 424.992188 576.101562 422.164062 576.378906 C 419.332031 576.65625 416.5 576.863281 413.660156 577.003906 C 410.816406 577.140625 407.976562 577.210938 405.132812 577.210938 C 402.289062 577.210938 399.445312 577.140625 396.605469 577.003906 C 393.765625 576.863281 390.929688 576.65625 388.101562 576.378906 C 385.269531 576.101562 382.449219 575.753906 379.636719 575.339844 C 376.824219 574.925781 374.023438 574.441406 371.234375 573.886719 C 368.445312 573.335938 365.671875 572.714844 362.910156 572.027344 C 360.152344 571.339844 357.414062 570.585938 354.691406 569.765625 C 351.96875 568.941406 349.269531 568.054688 346.59375 567.101562 C 343.917969 566.148438 341.265625 565.128906 338.636719 564.046875 C 336.007812 562.960938 333.410156 561.816406 330.839844 560.605469 C 328.269531 559.394531 325.730469 558.121094 323.222656 556.789062 C 320.714844 555.453125 318.238281 554.058594 315.800781 552.605469 C 313.363281 551.148438 310.960938 549.636719 308.59375 548.0625 C 306.230469 546.488281 303.90625 544.859375 301.621094 543.175781 C 299.339844 541.488281 297.097656 539.746094 294.898438 537.953125 C 292.699219 536.15625 290.546875 534.308594 288.441406 532.40625 C 286.332031 530.503906 284.273438 528.554688 282.265625 526.550781 C 280.253906 524.550781 278.292969 522.5 276.382812 520.402344 C 274.472656 518.308594 272.617188 516.164062 270.8125 513.976562 C 269.007812 511.789062 267.257812 509.558594 265.566406 507.285156 C 263.871094 505.011719 262.234375 502.695312 260.65625 500.34375 C 259.074219 497.988281 257.554688 495.597656 256.09375 493.171875 C 254.628906 490.742188 253.230469 488.28125 251.886719 485.785156 C 250.546875 483.289062 249.269531 480.761719 248.054688 478.203125 C 246.835938 475.640625 245.6875 473.054688 244.597656 470.441406 C 243.507812 467.824219 242.484375 465.183594 241.527344 462.519531 C 240.570312 459.855469 239.679688 457.167969 238.851562 454.457031 C 238.027344 451.75 237.269531 449.023438 236.578125 446.277344 C 235.886719 443.53125 235.265625 440.769531 234.710938 437.992188 C 234.15625 435.21875 233.667969 432.429688 233.25 429.628906 C 232.835938 426.828125 232.484375 424.019531 232.207031 421.203125 C 231.929688 418.386719 231.71875 415.566406 231.578125 412.738281 C 231.441406 409.910156 231.371094 407.082031 231.371094 404.25 C 231.371094 401.421875 231.441406 398.589844 231.578125 395.765625 C 231.71875 392.9375 231.929688 390.113281 232.207031 387.296875 C 232.484375 384.480469 232.835938 381.671875 233.25 378.871094 C 233.667969 376.074219 234.15625 373.285156 234.710938 370.507812 C 235.265625 367.730469 235.886719 364.972656 236.578125 362.226562 C 237.269531 359.480469 238.027344 356.753906 238.851562 354.042969 C 239.679688 351.335938 240.570312 348.648438 241.527344 345.980469 C 242.484375 343.316406 243.507812 340.675781 244.597656 338.0625 C 245.6875 335.445312 246.835938 332.859375 248.054688 330.300781 C 249.269531 327.742188 250.546875 325.214844 251.886719 322.71875 C 253.230469 320.222656 254.628906 317.757812 256.09375 315.332031 C 257.554688 312.902344 259.074219 310.511719 260.65625 308.160156 C 262.234375 305.804688 263.871094 303.492188 265.566406 301.21875 C 267.257812 298.945312 269.007812 296.714844 270.8125 294.527344 C 272.617188 292.339844 274.472656 290.195312 276.382812 288.097656 C 278.292969 286 280.253906 283.949219 282.265625 281.949219 C 284.273438 279.949219 286.335938 277.996094 288.441406 276.097656 C 290.546875 274.195312 292.699219 272.347656 294.898438 270.550781 C 297.097656 268.753906 299.339844 267.015625 301.621094 265.328125 C 303.90625 263.640625 306.230469 262.011719 308.59375 260.441406 C 310.960938 258.867188 313.363281 257.351562 315.800781 255.898438 C 318.238281 254.441406 320.714844 253.046875 323.222656 251.714844 C 325.730469 250.378906 328.269531 249.105469 330.839844 247.898438 C 333.410156 246.6875 336.007812 245.539062 338.636719 244.457031 C 341.265625 243.375 343.917969 242.355469 346.59375 241.402344 C 349.269531 240.449219 351.96875 239.558594 354.691406 238.738281 C 357.414062 237.917969 360.152344 237.160156 362.910156 236.472656 C 365.671875 235.785156 368.445312 235.167969 371.234375 234.613281 C 374.023438 234.0625 376.824219 233.578125 379.636719 233.164062 C 382.449219 232.746094 385.269531 232.402344 388.101562 232.125 C 390.929688 231.847656 393.765625 231.636719 396.605469 231.5 C 399.445312 231.359375 402.289062 231.289062 405.132812 231.289062 C 407.976562 231.289062 410.816406 231.359375 413.660156 231.5 C 416.5 231.636719 419.332031 231.847656 422.164062 232.125 C 424.992188 232.402344 427.816406 232.746094 430.628906 233.164062 C 433.441406 233.578125 436.242188 234.0625 439.03125 234.613281 C 441.820312 235.167969 444.59375 235.785156 447.351562 236.472656 C 450.113281 237.160156 452.851562 237.917969 455.574219 238.738281 C 458.292969 239.558594 460.992188 240.449219 463.671875 241.402344 C 466.347656 242.355469 469 243.375 471.628906 244.457031 C 474.253906 245.539062 476.855469 246.6875 479.425781 247.898438 C 481.996094 249.105469 484.535156 250.378906 487.042969 251.714844 C 489.550781 253.046875 492.023438 254.441406 494.464844 255.898438 C 496.902344 257.351562 499.304688 258.867188 501.667969 260.441406 C 504.035156 262.011719 506.359375 263.640625 508.640625 265.328125 C 510.925781 267.015625 513.167969 268.753906 515.367188 270.550781 C 517.5625 272.347656 519.714844 274.195312 521.824219 276.097656 C 523.929688 277.996094 525.988281 279.949219 528 281.949219 C 530.011719 283.949219 531.972656 286 533.882812 288.097656 C 535.789062 290.195312 537.648438 292.339844 539.453125 294.527344 C 541.257812 296.714844 543.003906 298.945312 544.699219 301.21875 C 546.394531 303.492188 548.03125 305.804688 549.609375 308.160156 C 551.191406 310.511719 552.710938 312.902344 554.171875 315.332031 C 555.632812 317.757812 557.035156 320.222656 558.375 322.71875 C 559.71875 325.214844 560.996094 327.742188 562.210938 330.300781 C 563.425781 332.859375 564.578125 335.445312 565.667969 338.0625 C 566.753906 340.675781 567.777344 343.316406 568.738281 345.980469 C 569.695312 348.648438 570.585938 351.335938 571.410156 354.042969 C 572.238281 356.753906 572.996094 359.480469 573.6875 362.226562 C 574.378906 364.972656 575 367.730469 575.554688 370.507812 C 576.109375 373.285156 576.597656 376.074219 577.011719 378.871094 C 577.429688 381.671875 577.777344 384.480469 578.058594 387.296875 C 578.335938 390.113281 578.546875 392.9375 578.683594 395.765625 C 578.824219 398.589844 578.894531 401.421875 578.894531 404.25 Z M 578.894531 404.25 " fill-opacity="1" fill-rule="nonzero"/><path fill="#ffbe00" d="M 360.164062 237.984375 C 337.730469 244.308594 317.574219 254.746094 300.273438 268.230469 C 368.21875 275.917969 427.949219 323.441406 447.566406 393.050781 C 467.183594 462.660156 441.058594 534.378906 387.128906 576.414062 C 408.925781 578.882812 431.566406 577.257812 454 570.933594 C 546.367188 544.902344 600.242188 449.265625 574.328125 357.324219 C 548.417969 265.382812 452.53125 211.953125 360.164062 237.984375 Z M 360.164062 237.984375 " fill-opacity="1" fill-rule="nonzero"/><path fill="#ffffff" d="M 470.804688 276.6875 L 470.800781 276.695312 C 466.402344 281.734375 467.183594 289.445312 472.511719 293.488281 C 490.308594 307.007812 505.066406 323.984375 515.988281 343.195312 C 518.777344 348.109375 524.765625 350.214844 530.050781 348.230469 C 536.71875 345.726562 539.546875 337.847656 536.023438 331.660156 C 523.574219 309.800781 506.777344 290.480469 486.523438 275.089844 C 481.679688 271.40625 474.808594 272.101562 470.804688 276.6875 Z M 470.804688 276.6875 " fill-opacity="1" fill-rule="nonzero"/><path fill="#ffffff" d="M 555.738281 390.386719 C 554.886719 385.320312 553.828125 380.308594 552.566406 375.363281 C 550.90625 368.839844 543.960938 365.183594 537.613281 367.425781 L 537.488281 367.46875 C 531.878906 369.449219 528.714844 375.375 530.171875 381.140625 C 531.253906 385.425781 532.167969 389.761719 532.90625 394.144531 C 533.988281 400.585938 540.113281 404.898438 546.519531 403.621094 L 546.648438 403.59375 C 552.75 402.371094 556.773438 396.523438 555.738281 390.386719 Z M 555.738281 390.386719 " fill-opacity="1" fill-rule="nonzero"/><path fill="#ffcf00" d="M 422.046875 97.59375 L 422.046875 102.667969 C 422.046875 111.828125 414.621094 119.257812 405.457031 119.257812 C 396.296875 119.257812 388.871094 111.828125 388.871094 102.667969 L 388.871094 97.59375 C 388.871094 88.429688 396.296875 81.003906 405.457031 81.003906 C 414.621094 81.003906 422.046875 88.433594 422.046875 97.59375 Z M 422.046875 97.59375 " fill-opacity="1" fill-rule="nonzero"/><path fill="#ffcf00" d="M 199.683594 175.582031 L 260.203125 236.105469 C 266.683594 242.582031 266.683594 253.085938 260.203125 259.5625 C 253.726562 266.042969 243.222656 266.042969 236.746094 259.5625 L 176.222656 199.039062 C 169.742188 192.558594 169.742188 182.058594 176.222656 175.582031 C 182.699219 169.105469 193.203125 169.105469 199.683594 175.582031 Z M 199.683594 175.582031 " fill-opacity="1" fill-rule="nonzero"/><path fill="#ffcf00" d="M 97.59375 387.964844 L 183.183594 387.964844 C 192.347656 387.964844 199.773438 395.390625 199.773438 404.550781 C 199.773438 413.714844 192.347656 421.140625 183.183594 421.140625 L 97.59375 421.140625 C 88.429688 421.140625 81.003906 413.714844 81.003906 404.550781 C 81.003906 395.390625 88.429688 387.964844 97.59375 387.964844 Z M 97.59375 387.964844 " fill-opacity="1" fill-rule="nonzero"/><path fill="#ffcf00" d="M 175.582031 610.328125 L 236.105469 549.804688 C 242.582031 543.328125 253.085938 543.324219 259.5625 549.804688 C 266.039062 556.28125 266.039062 566.785156 259.5625 573.261719 L 199.039062 633.785156 C 192.558594 640.265625 182.058594 640.265625 175.578125 633.785156 C 169.105469 627.308594 169.105469 616.804688 175.582031 610.328125 Z M 175.582031 610.328125 " fill-opacity="1" fill-rule="nonzero"/><g clip-path="url(#5f0ffe4e3e)"><path fill="#ffcf00" d="M 387.964844 727.492188 L 387.964844 611.746094 C 387.964844 610.910156 388.640625 610.234375 389.476562 610.234375 L 419.628906 610.234375 C 420.464844 610.234375 421.140625 610.910156 421.140625 611.746094 L 421.140625 727.492188 C 421.140625 728.328125 420.464844 729.003906 419.628906 729.003906 L 389.476562 729.003906 C 388.640625 729.003906 387.964844 728.328125 387.964844 727.492188 Z M 387.964844 727.492188 " fill-opacity="1" fill-rule="nonzero"/></g><path fill="#ffcf00" d="M 610.328125 634.429688 L 549.800781 573.902344 C 543.324219 567.425781 543.324219 556.921875 549.800781 550.445312 C 556.28125 543.96875 566.785156 543.96875 573.261719 550.445312 L 633.785156 610.96875 C 640.261719 617.445312 640.261719 627.949219 633.785156 634.425781 C 627.308594 640.90625 616.804688 640.90625 610.328125 634.429688 Z M 610.328125 634.429688 " fill-opacity="1" fill-rule="nonzero"/><g clip-path="url(#7cf464a76f)"><path fill="#ffcf00" d="M 712.417969 422.046875 L 626.824219 422.046875 C 617.660156 422.046875 610.234375 414.621094 610.234375 405.457031 C 610.234375 396.296875 617.660156 388.871094 626.824219 388.871094 L 712.417969 388.871094 C 721.578125 388.871094 729.003906 396.296875 729.003906 405.457031 C 729.003906 414.621094 721.578125 422.046875 712.417969 422.046875 Z M 712.417969 422.046875 " fill-opacity="1" fill-rule="nonzero"/></g><path fill="#ffcf00" d="M 635.074219 199.03125 L 573.253906 260.851562 C 567.136719 266.972656 557.210938 266.972656 551.09375 260.851562 L 549.796875 259.554688 C 543.675781 253.4375 543.675781 243.511719 549.796875 237.394531 L 611.617188 175.574219 C 617.734375 169.453125 627.660156 169.453125 633.777344 175.574219 L 635.074219 176.871094 C 641.195312 182.992188 641.195312 192.914062 635.074219 199.03125 Z M 635.074219 199.03125 " fill-opacity="1" fill-rule="nonzero"/><path fill="#ffcf00" d="M 422.046875 162.175781 L 422.046875 183.183594 C 422.046875 192.347656 414.621094 199.773438 405.457031 199.773438 C 396.296875 199.773438 388.871094 192.347656 388.871094 183.183594 L 388.871094 162.175781 C 388.871094 153.015625 396.296875 145.585938 405.457031 145.585938 C 414.621094 145.585938 422.046875 153.015625 422.046875 162.175781 Z M 422.046875 162.175781 " fill-opacity="1" fill-rule="nonzero"/></svg>