<svg xmlns="http://www.w3.org/2000/svg" xmlns:xlink="http://www.w3.org/1999/xlink" width="1080" zoomAndPan="magnify" viewBox="0 0 810 809.999993" height="1080" preserveAspectRatio="xMidYMid meet" version="1.0"><defs><clipPath id="b967345af8"><path d="M 135 318 L 726 318 L 726 641.113281 L 135 641.113281 Z M 135 318 " clip-rule="nonzero"/></clipPath><clipPath id="45ac4651ad"><path d="M 410 318 L 726 318 L 726 641.113281 L 410 641.113281 Z M 410 318 " clip-rule="nonzero"/></clipPath></defs><path fill="#ffcf00" d="M 270.855469 178.171875 L 271.09375 181.203125 C 271.523438 186.675781 267.433594 191.460938 261.960938 191.890625 C 256.484375 192.320312 251.699219 188.234375 251.265625 182.761719 L 251.027344 179.730469 C 250.597656 174.257812 254.6875 169.476562 260.160156 169.046875 C 265.636719 168.613281 270.421875 172.703125 270.855469 178.171875 Z M 270.855469 178.171875 " fill-opacity="1" fill-rule="nonzero"/><path fill="#ffcf00" d="M 146.589844 229.667969 L 185.597656 262.972656 C 189.773438 266.535156 190.269531 272.808594 186.703125 276.984375 C 183.136719 281.15625 176.859375 281.648438 172.683594 278.085938 L 133.671875 244.78125 C 129.496094 241.214844 129.003906 234.945312 132.570312 230.769531 C 136.136719 226.597656 142.414062 226.105469 146.589844 229.667969 Z M 146.589844 229.667969 " fill-opacity="1" fill-rule="nonzero"/><path fill="#ffcf00" d="M 90.613281 358.789062 L 141.761719 354.769531 C 147.234375 354.339844 152.023438 358.425781 152.453125 363.898438 C 152.882812 369.367188 148.792969 374.152344 143.320312 374.582031 L 92.171875 378.601562 C 86.695312 379.03125 81.910156 374.945312 81.480469 369.472656 C 81.046875 364.003906 85.140625 359.21875 90.613281 358.789062 Z M 90.613281 358.789062 " fill-opacity="1" fill-rule="nonzero"/><path fill="#ffcf00" d="M 402.921875 220.710938 L 368.886719 260.535156 C 365.515625 264.476562 359.585938 264.945312 355.640625 261.578125 L 354.808594 260.863281 C 350.863281 257.496094 350.394531 251.570312 353.765625 247.628906 L 387.800781 207.804688 C 391.171875 203.859375 397.101562 203.394531 401.046875 206.761719 L 401.878906 207.476562 C 405.824219 210.84375 406.292969 216.769531 402.921875 220.710938 Z M 402.921875 220.710938 " fill-opacity="1" fill-rule="nonzero"/><path fill="#ffcf00" d="M 273.886719 216.746094 L 274.875 229.292969 C 275.304688 234.765625 271.21875 239.550781 265.742188 239.980469 C 260.265625 240.410156 255.480469 236.324219 255.050781 230.851562 L 254.0625 218.304688 C 253.632812 212.832031 257.71875 208.046875 263.195312 207.617188 C 268.671875 207.1875 273.457031 211.273438 273.886719 216.746094 Z M 273.886719 216.746094 " fill-opacity="1" fill-rule="nonzero"/><path fill="#ffcf00" d="M 394.441406 375.464844 C 394.441406 377.261719 394.394531 379.058594 394.308594 380.851562 C 394.21875 382.648438 394.085938 384.441406 393.910156 386.226562 C 393.730469 388.015625 393.511719 389.796875 393.246094 391.574219 C 392.980469 393.351562 392.671875 395.121094 392.320312 396.886719 C 391.964844 398.648438 391.570312 400.398438 391.132812 402.144531 C 390.691406 403.886719 390.210938 405.617188 389.6875 407.335938 C 389.164062 409.054688 388.597656 410.761719 387.988281 412.453125 C 387.378906 414.144531 386.730469 415.820312 386.039062 417.480469 C 385.347656 419.140625 384.617188 420.78125 383.84375 422.40625 C 383.070312 424.03125 382.257812 425.636719 381.410156 427.21875 C 380.558594 428.804688 379.667969 430.367188 378.738281 431.910156 C 377.808594 433.449219 376.84375 434.96875 375.839844 436.460938 C 374.835938 437.957031 373.796875 439.425781 372.722656 440.867188 C 371.644531 442.3125 370.535156 443.726562 369.390625 445.117188 C 368.242188 446.503906 367.0625 447.863281 365.851562 449.195312 C 364.636719 450.527344 363.394531 451.828125 362.117188 453.097656 C 360.839844 454.371094 359.53125 455.609375 358.191406 456.816406 C 356.855469 458.019531 355.488281 459.195312 354.089844 460.335938 C 352.695312 461.472656 351.269531 462.578125 349.820312 463.648438 C 348.371094 464.71875 346.894531 465.753906 345.390625 466.753906 C 343.890625 467.75 342.363281 468.710938 340.816406 469.636719 C 339.265625 470.558594 337.695312 471.445312 336.101562 472.292969 C 334.507812 473.136719 332.898438 473.945312 331.265625 474.714844 C 329.632812 475.484375 327.980469 476.210938 326.3125 476.898438 C 324.644531 477.585938 322.957031 478.230469 321.257812 478.835938 C 319.558594 479.441406 317.84375 480.007812 316.113281 480.527344 C 314.386719 481.050781 312.644531 481.527344 310.894531 481.964844 C 309.140625 482.402344 307.378906 482.796875 305.609375 483.144531 C 303.835938 483.496094 302.058594 483.804688 300.273438 484.066406 C 298.484375 484.332031 296.691406 484.550781 294.894531 484.726562 C 293.097656 484.902344 291.296875 485.035156 289.492188 485.125 C 287.691406 485.210938 285.882812 485.253906 284.078125 485.253906 C 282.273438 485.253906 280.46875 485.210938 278.664062 485.125 C 276.859375 485.035156 275.058594 484.902344 273.261719 484.726562 C 271.464844 484.550781 269.671875 484.332031 267.886719 484.066406 C 266.097656 483.804688 264.320312 483.496094 262.546875 483.144531 C 260.777344 482.796875 259.015625 482.402344 257.261719 481.964844 C 255.511719 481.527344 253.769531 481.050781 252.042969 480.527344 C 250.3125 480.007812 248.601562 479.441406 246.898438 478.835938 C 245.199219 478.230469 243.515625 477.585938 241.84375 476.898438 C 240.175781 476.210938 238.527344 475.484375 236.894531 474.714844 C 235.261719 473.945312 233.648438 473.136719 232.054688 472.292969 C 230.460938 471.445312 228.890625 470.558594 227.339844 469.636719 C 225.792969 468.710938 224.265625 467.75 222.765625 466.753906 C 221.261719 465.753906 219.789062 464.71875 218.335938 463.648438 C 216.886719 462.578125 215.460938 461.472656 214.066406 460.335938 C 212.671875 459.195312 211.304688 458.019531 209.964844 456.816406 C 208.625 455.609375 207.320312 454.371094 206.042969 453.097656 C 204.765625 451.828125 203.519531 450.527344 202.304688 449.195312 C 201.09375 447.863281 199.914062 446.503906 198.769531 445.117188 C 197.621094 443.726562 196.511719 442.3125 195.4375 440.867188 C 194.359375 439.425781 193.320312 437.957031 192.316406 436.460938 C 191.3125 434.96875 190.347656 433.449219 189.417969 431.910156 C 188.492188 430.367188 187.601562 428.804688 186.75 427.21875 C 185.898438 425.636719 185.085938 424.03125 184.3125 422.40625 C 183.542969 420.78125 182.808594 419.140625 182.117188 417.480469 C 181.425781 415.820312 180.777344 414.144531 180.167969 412.453125 C 179.558594 410.761719 178.992188 409.054688 178.46875 407.335938 C 177.945312 405.617188 177.464844 403.886719 177.023438 402.144531 C 176.585938 400.398438 176.191406 398.648438 175.839844 396.886719 C 175.484375 395.121094 175.175781 393.351562 174.910156 391.574219 C 174.648438 389.796875 174.425781 388.015625 174.25 386.226562 C 174.070312 384.441406 173.9375 382.648438 173.851562 380.851562 C 173.761719 379.058594 173.71875 377.261719 173.71875 375.464844 C 173.71875 373.667969 173.761719 371.875 173.851562 370.078125 C 173.9375 368.285156 174.070312 366.492188 174.25 364.707031 C 174.425781 362.917969 174.648438 361.132812 174.910156 359.355469 C 175.175781 357.578125 175.484375 355.808594 175.839844 354.046875 C 176.191406 352.285156 176.585938 350.53125 177.023438 348.789062 C 177.464844 347.046875 177.945312 345.316406 178.46875 343.597656 C 178.992188 341.875 179.558594 340.171875 180.167969 338.480469 C 180.777344 336.789062 181.425781 335.113281 182.117188 333.453125 C 182.808594 331.792969 183.542969 330.148438 184.3125 328.527344 C 185.085938 326.902344 185.898438 325.296875 186.75 323.710938 C 187.601562 322.128906 188.492188 320.566406 189.417969 319.023438 C 190.347656 317.480469 191.3125 315.964844 192.316406 314.472656 C 193.320312 312.976562 194.359375 311.507812 195.4375 310.066406 C 196.511719 308.621094 197.621094 307.207031 198.769531 305.816406 C 199.914062 304.429688 201.09375 303.066406 202.304688 301.738281 C 203.519531 300.40625 204.765625 299.105469 206.042969 297.832031 C 207.320312 296.5625 208.625 295.324219 209.964844 294.117188 C 211.304688 292.910156 212.671875 291.738281 214.066406 290.597656 C 215.460938 289.457031 216.886719 288.351562 218.335938 287.28125 C 219.789062 286.210938 221.261719 285.179688 222.765625 284.179688 C 224.265625 283.183594 225.792969 282.222656 227.339844 281.296875 C 228.890625 280.375 230.460938 279.488281 232.054688 278.640625 C 233.648438 277.792969 235.261719 276.988281 236.894531 276.21875 C 238.527344 275.449219 240.175781 274.722656 241.84375 274.035156 C 243.515625 273.347656 245.199219 272.699219 246.898438 272.09375 C 248.601562 271.488281 250.3125 270.925781 252.042969 270.40625 C 253.769531 269.882812 255.511719 269.402344 257.261719 268.96875 C 259.015625 268.53125 260.777344 268.136719 262.546875 267.785156 C 264.320312 267.4375 266.097656 267.128906 267.886719 266.867188 C 269.671875 266.601562 271.464844 266.382812 273.261719 266.207031 C 275.058594 266.03125 276.859375 265.898438 278.664062 265.808594 C 280.46875 265.722656 282.273438 265.675781 284.078125 265.675781 C 285.882812 265.675781 287.691406 265.722656 289.492188 265.808594 C 291.296875 265.898438 293.097656 266.03125 294.894531 266.207031 C 296.691406 266.382812 298.484375 266.601562 300.273438 266.867188 C 302.058594 267.128906 303.835938 267.4375 305.609375 267.785156 C 307.378906 268.136719 309.140625 268.53125 310.894531 268.96875 C 312.644531 269.402344 314.386719 269.882812 316.113281 270.40625 C 317.84375 270.925781 319.558594 271.488281 321.257812 272.09375 C 322.957031 272.699219 324.644531 273.347656 326.3125 274.035156 C 327.980469 274.722656 329.632812 275.449219 331.265625 276.21875 C 332.898438 276.988281 334.507812 277.792969 336.101562 278.640625 C 337.695312 279.488281 339.265625 280.375 340.816406 281.296875 C 342.363281 282.222656 343.890625 283.183594 345.390625 284.179688 C 346.894531 285.179688 348.371094 286.210938 349.820312 287.28125 C 351.269531 288.351562 352.695312 289.457031 354.089844 290.597656 C 355.488281 291.738281 356.855469 292.910156 358.191406 294.117188 C 359.53125 295.324219 360.839844 296.5625 362.117188 297.832031 C 363.394531 299.105469 364.636719 300.40625 365.851562 301.738281 C 367.0625 303.066406 368.242188 304.429688 369.390625 305.816406 C 370.535156 307.207031 371.644531 308.621094 372.722656 310.066406 C 373.796875 311.507812 374.835938 312.976562 375.839844 314.472656 C 376.84375 315.964844 377.808594 317.480469 378.738281 319.023438 C 379.667969 320.566406 380.558594 322.128906 381.410156 323.710938 C 382.257812 325.296875 383.070312 326.902344 383.84375 328.527344 C 384.617188 330.148438 385.347656 331.792969 386.039062 333.453125 C 386.730469 335.113281 387.378906 336.789062 387.988281 338.480469 C 388.597656 340.171875 389.164062 341.875 389.6875 343.597656 C 390.210938 345.316406 390.695312 347.046875 391.132812 348.789062 C 391.570312 350.53125 391.964844 352.285156 392.320312 354.046875 C 392.671875 355.808594 392.980469 357.578125 393.246094 359.355469 C 393.511719 361.132812 393.730469 362.917969 393.910156 364.707031 C 394.085938 366.492188 394.21875 368.285156 394.308594 370.078125 C 394.394531 371.875 394.441406 373.667969 394.441406 375.464844 Z M 394.441406 375.464844 " fill-opacity="1" fill-rule="nonzero"/><path fill="#ffbe00" d="M 326.546875 274.105469 C 335.632812 290.058594 340.824219 308.5 340.824219 328.144531 C 340.824219 388.78125 291.414062 437.933594 230.464844 437.933594 C 215.414062 437.933594 201.070312 434.933594 187.996094 429.503906 C 206.953125 462.792969 242.878906 485.253906 284.078125 485.253906 C 345.027344 485.253906 394.441406 436.101562 394.441406 375.464844 C 394.441406 329.804688 366.414062 290.65625 326.546875 274.105469 Z M 326.546875 274.105469 " fill-opacity="1" fill-rule="nonzero"/><path fill="#ffffff" d="M 343.945312 298.765625 C 333.472656 290.550781 321.496094 284.28125 308.617188 280.394531 C 304.082031 279.027344 299.25 281.332031 297.550781 285.730469 C 295.90625 289.984375 298.25 294.746094 302.648438 296.003906 C 313.800781 299.195312 324.179688 304.5 333.25 311.519531 C 336.121094 313.742188 340.082031 313.941406 343.15625 312.007812 C 343.183594 311.992188 343.207031 311.976562 343.230469 311.960938 C 347.96875 308.980469 348.347656 302.21875 343.945312 298.765625 Z M 343.945312 298.765625 " fill-opacity="1" fill-rule="nonzero"/><g clip-path="url(#b967345af8)"><path fill="#d1d1d2" d="M 617.128906 409.699219 C 616.015625 409.699219 614.921875 409.78125 613.828125 409.863281 L 603.523438 410.410156 L 600.613281 403.808594 C 576.898438 350.015625 525.089844 318.085938 468.628906 318.085938 C 400.789062 318.085938 336.316406 367.113281 324.675781 442.75 L 314.28125 439.589844 C 305.753906 436.996094 297.050781 435.675781 288.433594 435.675781 C 242.148438 435.675781 196.152344 473.183594 195.476562 526.292969 L 186.605469 526.429688 C 158.660156 526.855469 132.148438 551.722656 135.921875 587.1875 C 139.070312 616.753906 158.996094 641.117188 187.363281 641.117188 L 615.957031 641.117188 C 676.058594 641.117188 721.105469 589.734375 724.957031 526.847656 C 728.9375 461.800781 677.226562 409.699219 617.128906 409.699219 Z M 617.128906 409.699219 " fill-opacity="1" fill-rule="nonzero"/></g><g clip-path="url(#45ac4651ad)"><path fill="#b5b8b9" d="M 617.128906 409.699219 C 616.015625 409.699219 614.921875 409.78125 613.828125 409.863281 L 603.523438 410.410156 L 600.613281 403.808594 C 576.898438 350.015625 525.089844 318.085938 468.628906 318.085938 C 451.085938 318.085938 433.765625 321.363281 417.527344 327.535156 C 497.328125 358.066406 550.929688 422.570312 546.789062 493.941406 C 542.84375 561.996094 487.472656 617.777344 410.5625 641.121094 L 615.957031 641.121094 C 676.054688 641.121094 721.101562 589.734375 724.953125 526.847656 C 728.9375 461.800781 677.226562 409.699219 617.128906 409.699219 Z M 617.128906 409.699219 " fill-opacity="1" fill-rule="nonzero"/></g><path fill="#ffffff" d="M 433.960938 347.050781 L 433.960938 347.0625 C 434.25 352.808594 439.34375 357.113281 445.0625 356.433594 C 464.171875 354.164062 483.460938 355.859375 501.71875 361.226562 C 506.382812 362.601562 511.351562 360.328125 513.4375 355.9375 C 516.070312 350.402344 513.113281 343.835938 507.230469 342.113281 C 486.445312 336.015625 464.488281 334.09375 442.738281 336.667969 C 437.535156 337.285156 433.695312 341.820312 433.960938 347.050781 Z M 433.960938 347.050781 " fill-opacity="1" fill-rule="nonzero"/><path fill="#ffffff" d="M 553.882812 371.378906 C 550.667969 368.339844 547.339844 365.449219 543.910156 362.703125 C 539.386719 359.082031 532.714844 360.175781 529.511719 365.003906 L 529.449219 365.101562 C 526.625 369.367188 527.519531 375.078125 531.515625 378.28125 C 534.480469 380.660156 537.359375 383.167969 540.136719 385.796875 C 544.222656 389.660156 550.667969 389.445312 554.40625 385.246094 L 554.484375 385.160156 C 558.042969 381.160156 557.773438 375.058594 553.882812 371.378906 Z M 553.882812 371.378906 " fill-opacity="1" fill-rule="nonzero"/></svg>