<svg xmlns="http://www.w3.org/2000/svg" xmlns:xlink="http://www.w3.org/1999/xlink" width="1080" zoomAndPan="magnify" viewBox="0 0 810 809.999993" height="1080" preserveAspectRatio="xMidYMid meet" version="1.0"><path fill="#ffcf00" d="M 566.996094 242.996094 C 569.648438 245.648438 572.230469 248.363281 574.75 251.140625 C 577.269531 253.917969 579.714844 256.757812 582.09375 259.65625 C 584.472656 262.554688 586.78125 265.507812 589.011719 268.519531 C 591.246094 271.53125 593.40625 274.597656 595.488281 277.714844 C 597.570312 280.832031 599.578125 284 601.503906 287.214844 C 603.433594 290.429688 605.28125 293.691406 607.046875 297 C 608.816406 300.304688 610.5 303.652344 612.101562 307.042969 C 613.707031 310.433594 615.226562 313.859375 616.660156 317.324219 C 618.09375 320.785156 619.445312 324.285156 620.707031 327.8125 C 621.972656 331.34375 623.148438 334.902344 624.234375 338.492188 C 625.324219 342.078125 626.324219 345.691406 627.234375 349.328125 C 628.144531 352.964844 628.96875 356.621094 629.699219 360.300781 C 630.429688 363.976562 631.070312 367.671875 631.621094 371.378906 C 632.171875 375.089844 632.628906 378.808594 632.996094 382.539062 C 633.367188 386.269531 633.640625 390.007812 633.824219 393.753906 C 634.007812 397.5 634.101562 401.246094 634.101562 404.996094 C 634.101562 408.746094 634.007812 412.492188 633.824219 416.238281 C 633.640625 419.980469 633.367188 423.71875 633 427.453125 C 632.632812 431.183594 632.171875 434.902344 631.621094 438.613281 C 631.070312 442.320312 630.429688 446.015625 629.699219 449.691406 C 628.96875 453.367188 628.148438 457.027344 627.234375 460.664062 C 626.324219 464.300781 625.324219 467.914062 624.238281 471.5 C 623.148438 475.089844 621.972656 478.648438 620.710938 482.179688 C 619.445312 485.707031 618.097656 489.207031 616.664062 492.667969 C 615.226562 496.132812 613.710938 499.558594 612.105469 502.949219 C 610.503906 506.339844 608.816406 509.6875 607.050781 512.996094 C 605.285156 516.300781 603.4375 519.5625 601.507812 522.777344 C 599.582031 525.996094 597.574219 529.160156 595.492188 532.277344 C 593.410156 535.398438 591.25 538.460938 589.019531 541.472656 C 586.785156 544.484375 584.476562 547.4375 582.097656 550.335938 C 579.722656 553.234375 577.273438 556.074219 574.753906 558.851562 C 572.238281 561.632812 569.652344 564.34375 567 566.996094 C 564.351562 569.648438 561.636719 572.234375 558.855469 574.75 C 556.078125 577.269531 553.242188 579.71875 550.34375 582.097656 C 547.445312 584.472656 544.488281 586.78125 541.476562 589.015625 C 538.464844 591.246094 535.402344 593.40625 532.285156 595.488281 C 529.167969 597.574219 526 599.578125 522.785156 601.503906 C 519.566406 603.433594 516.304688 605.28125 513 607.046875 C 509.691406 608.816406 506.34375 610.5 502.957031 612.105469 C 499.566406 613.707031 496.140625 615.226562 492.675781 616.660156 C 489.210938 618.097656 485.714844 619.445312 482.183594 620.707031 C 478.652344 621.972656 475.09375 623.148438 471.507812 624.234375 C 467.917969 625.324219 464.304688 626.324219 460.667969 627.234375 C 457.03125 628.148438 453.375 628.96875 449.699219 629.699219 C 446.019531 630.429688 442.328125 631.070312 438.617188 631.621094 C 434.910156 632.171875 431.191406 632.632812 427.457031 633 C 423.726562 633.367188 419.988281 633.640625 416.242188 633.828125 C 412.5 634.011719 408.75 634.101562 405.003906 634.101562 C 401.253906 634.101562 397.503906 634.011719 393.761719 633.828125 C 390.015625 633.644531 386.277344 633.367188 382.546875 633 C 378.816406 632.632812 375.09375 632.171875 371.386719 631.625 C 367.675781 631.074219 363.984375 630.433594 360.304688 629.703125 C 356.628906 628.96875 352.972656 628.148438 349.335938 627.238281 C 345.699219 626.328125 342.085938 625.328125 338.496094 624.238281 C 334.910156 623.152344 331.351562 621.976562 327.820312 620.710938 C 324.289062 619.449219 320.792969 618.101562 317.328125 616.664062 C 313.863281 615.230469 310.4375 613.710938 307.046875 612.109375 C 303.660156 610.503906 300.308594 608.820312 297.003906 607.050781 C 293.695312 605.285156 290.4375 603.4375 287.21875 601.511719 C 284.003906 599.582031 280.835938 597.578125 277.71875 595.496094 C 274.601562 593.410156 271.535156 591.253906 268.527344 589.019531 C 265.515625 586.785156 262.558594 584.480469 259.660156 582.101562 C 256.761719 579.722656 253.921875 577.273438 251.144531 574.757812 C 248.367188 572.238281 245.652344 569.65625 243 567.003906 C 240.351562 564.351562 237.765625 561.636719 235.246094 558.859375 C 232.730469 556.082031 230.28125 553.242188 227.902344 550.34375 C 225.523438 547.445312 223.21875 544.492188 220.984375 541.480469 C 218.75 538.46875 216.59375 535.402344 214.507812 532.285156 C 212.425781 529.167969 210.421875 526.003906 208.492188 522.785156 C 206.566406 519.570312 204.71875 516.308594 202.949219 513.003906 C 201.183594 509.695312 199.496094 506.347656 197.894531 502.957031 C 196.292969 499.570312 194.773438 496.140625 193.335938 492.679688 C 191.902344 489.214844 190.554688 485.71875 189.289062 482.1875 C 188.027344 478.65625 186.851562 475.097656 185.761719 471.507812 C 184.675781 467.921875 183.675781 464.308594 182.761719 460.671875 C 181.851562 457.035156 181.03125 453.378906 180.300781 449.699219 C 179.566406 446.023438 178.925781 442.328125 178.375 438.621094 C 177.828125 434.914062 177.367188 431.191406 177 427.460938 C 176.632812 423.730469 176.355469 419.992188 176.171875 416.246094 C 175.988281 412.5 175.894531 408.753906 175.894531 405.003906 C 175.894531 401.253906 175.988281 397.507812 176.171875 393.761719 C 176.355469 390.019531 176.632812 386.28125 177 382.550781 C 177.367188 378.816406 177.824219 375.097656 178.375 371.386719 C 178.925781 367.679688 179.566406 363.988281 180.296875 360.308594 C 181.03125 356.632812 181.851562 352.972656 182.761719 349.335938 C 183.671875 345.699219 184.671875 342.085938 185.761719 338.5 C 186.847656 334.910156 188.023438 331.351562 189.289062 327.824219 C 190.550781 324.292969 191.898438 320.792969 193.335938 317.332031 C 194.769531 313.867188 196.289062 310.441406 197.890625 307.050781 C 199.496094 303.660156 201.179688 300.3125 202.945312 297.007812 C 204.714844 293.699219 206.5625 290.4375 208.488281 287.222656 C 210.417969 284.007812 212.421875 280.839844 214.503906 277.722656 C 216.589844 274.605469 218.746094 271.539062 220.980469 268.527344 C 223.214844 265.515625 225.519531 262.5625 227.898438 259.664062 C 230.277344 256.765625 232.726562 253.925781 235.242188 251.148438 C 237.761719 248.371094 240.34375 245.65625 242.996094 243.003906 C 245.648438 240.351562 248.363281 237.769531 251.140625 235.25 C 253.917969 232.730469 256.757812 230.285156 259.65625 227.90625 C 262.554688 225.527344 265.507812 223.21875 268.519531 220.984375 C 271.53125 218.753906 274.597656 216.59375 277.714844 214.511719 C 280.832031 212.429688 283.996094 210.421875 287.214844 208.496094 C 290.429688 206.566406 293.691406 204.71875 296.996094 202.953125 C 300.304688 201.183594 303.652344 199.5 307.042969 197.894531 C 310.429688 196.292969 313.859375 194.773438 317.320312 193.339844 C 320.785156 191.902344 324.28125 190.554688 327.8125 189.292969 C 331.34375 188.027344 334.902344 186.851562 338.492188 185.765625 C 342.078125 184.675781 345.691406 183.675781 349.328125 182.765625 C 352.964844 181.855469 356.621094 181.03125 360.300781 180.300781 C 363.976562 179.570312 367.671875 178.929688 371.378906 178.378906 C 375.089844 177.828125 378.808594 177.367188 382.539062 177 C 386.269531 176.632812 390.007812 176.359375 393.753906 176.175781 C 397.5 175.988281 401.246094 175.898438 404.996094 175.898438 C 408.746094 175.898438 412.492188 175.988281 416.238281 176.171875 C 419.980469 176.359375 423.71875 176.632812 427.453125 177 C 431.183594 177.367188 434.902344 177.828125 438.613281 178.375 C 442.320312 178.925781 446.015625 179.566406 449.691406 180.300781 C 453.367188 181.03125 457.027344 181.851562 460.664062 182.761719 C 464.300781 183.671875 467.914062 184.671875 471.5 185.761719 C 475.089844 186.851562 478.648438 188.027344 482.179688 189.289062 C 485.707031 190.550781 489.207031 191.902344 492.667969 193.335938 C 496.132812 194.769531 499.558594 196.289062 502.949219 197.890625 C 506.339844 199.496094 509.6875 201.179688 512.992188 202.949219 C 516.300781 204.714844 519.5625 206.5625 522.777344 208.488281 C 525.992188 210.417969 529.160156 212.421875 532.277344 214.507812 C 535.394531 216.589844 538.460938 218.746094 541.472656 220.980469 C 544.484375 223.214844 547.4375 225.519531 550.335938 227.898438 C 553.234375 230.277344 556.074219 232.726562 558.851562 235.242188 C 561.628906 237.761719 564.34375 240.347656 566.996094 242.996094 Z M 566.996094 242.996094 " fill-opacity="1" fill-rule="nonzero"/><path fill="#ffbe00" d="M 349.449219 183.75 C 394.277344 204.003906 432.917969 238.746094 457.472656 285.652344 C 515.976562 397.414062 472.527344 535.585938 360.425781 594.269531 C 344.507812 602.601562 328.054688 608.8125 311.378906 613.136719 C 373.363281 641.140625 447.210938 641.398438 512.265625 607.347656 C 624.363281 548.664062 667.808594 410.492188 609.304688 298.730469 C 559.109375 202.839844 450.179688 157.617188 349.449219 183.75 Z M 349.449219 183.75 " fill-opacity="1" fill-rule="nonzero"/><path fill="#ffffff" d="M 496.5 239.9375 L 496.492188 239.949219 C 491.667969 245.511719 492.554688 253.996094 498.433594 258.429688 C 518.078125 273.25 534.378906 291.890625 546.46875 313.003906 C 549.558594 318.402344 556.15625 320.699219 561.96875 318.496094 C 569.304688 315.714844 572.386719 307.035156 568.484375 300.234375 C 554.707031 276.210938 536.148438 255 513.796875 238.125 C 508.453125 234.085938 500.890625 234.875 496.5 239.9375 Z M 496.5 239.9375 " fill-opacity="1" fill-rule="nonzero"/><path fill="#ffffff" d="M 590.398438 364.820312 C 589.441406 359.246094 588.257812 353.734375 586.855469 348.292969 C 585.003906 341.113281 577.339844 337.117188 570.359375 339.601562 L 570.222656 339.652344 C 564.054688 341.851562 560.589844 348.386719 562.214844 354.730469 C 563.421875 359.441406 564.445312 364.210938 565.269531 369.035156 C 566.484375 376.121094 573.242188 380.851562 580.289062 379.417969 L 580.433594 379.390625 C 587.144531 378.023438 591.554688 371.570312 590.398438 364.820312 Z M 590.398438 364.820312 " fill-opacity="1" fill-rule="nonzero"/></svg>