<svg xmlns="http://www.w3.org/2000/svg" xmlns:xlink="http://www.w3.org/1999/xlink" width="1080" zoomAndPan="magnify" viewBox="0 0 810 809.999993" height="1080" preserveAspectRatio="xMidYMid meet" version="1.0"><path fill="#fdcd05" d="M 385.953125 460.039062 L 331.867188 556.3125 C 329.046875 561.339844 332.214844 567.871094 337.53125 567.988281 L 394.378906 569.246094 C 399.644531 569.363281 402.972656 575.582031 400.566406 580.804688 L 351.15625 684.332031 C 349.113281 688.613281 353.992188 692.828125 357.421875 689.746094 L 524.613281 539.40625 C 528.167969 536.238281 526.226562 529.859375 521.679688 529.757812 L 446.308594 528.089844 C 439.421875 527.9375 435.324219 519.484375 438.980469 512.980469 L 468.410156 460.53125 Z M 385.953125 460.039062 " fill-opacity="1" fill-rule="nonzero"/><path fill="#fdbc02" d="M 434.101562 461.363281 L 403.171875 520.761719 C 396.058594 534.421875 406.078125 550.738281 421.484375 550.574219 L 478.175781 549.984375 C 479.828125 549.964844 480.675781 551.949219 479.519531 553.128906 L 351.160156 684.332031 C 351.160156 684.332031 347.929688 692.117188 357.425781 689.746094 C 365.457031 687.742188 486.496094 574.136719 523.589844 539.1875 C 527.449219 535.550781 524.871094 529.066406 519.570312 529.066406 L 449.828125 529.066406 C 440.421875 529.066406 434.550781 518.878906 439.269531 510.742188 L 468.417969 460.53125 Z M 434.101562 461.363281 " fill-opacity="1" fill-rule="nonzero"/><path fill="#7be0fc" d="M 607.601562 216.507812 C 606.390625 216.507812 605.207031 216.597656 604.015625 216.6875 L 592.828125 217.28125 L 589.667969 210.113281 C 563.921875 151.6875 507.664062 117.007812 446.359375 117.007812 C 372.699219 117.007812 302.6875 170.253906 290.050781 252.40625 L 278.769531 248.972656 C 269.503906 246.15625 260.058594 244.726562 250.699219 244.726562 C 200.445312 244.726562 150.5 285.460938 149.765625 343.148438 L 140.128906 343.296875 C 109.789062 343.757812 81.003906 370.765625 85.097656 409.28125 C 88.511719 441.394531 110.152344 467.855469 140.953125 467.855469 L 606.328125 467.855469 C 671.585938 467.855469 720.5 412.042969 724.679688 343.742188 C 729.003906 273.09375 672.859375 216.507812 607.601562 216.507812 Z M 607.601562 216.507812 " fill-opacity="1" fill-rule="nonzero"/><path fill="#43d2e8" d="M 607.601562 216.507812 C 606.390625 216.507812 605.207031 216.597656 604.015625 216.6875 L 592.828125 217.28125 L 589.667969 210.113281 C 563.917969 151.6875 507.664062 117.007812 446.359375 117.007812 C 427.308594 117.007812 408.5 120.570312 390.867188 127.269531 C 477.515625 160.429688 535.722656 230.484375 531.226562 308.003906 C 526.941406 381.917969 466.820312 442.5 383.308594 467.851562 L 606.328125 467.851562 C 671.585938 467.851562 720.5 412.039062 724.679688 343.738281 C 729.003906 273.09375 672.859375 216.507812 607.601562 216.507812 Z M 607.601562 216.507812 " fill-opacity="1" fill-rule="nonzero"/><path fill="#ffffff" d="M 408.710938 148.464844 L 408.710938 148.476562 C 409.027344 154.714844 414.558594 159.394531 420.765625 158.65625 C 441.515625 156.191406 462.464844 158.03125 482.285156 163.863281 C 487.351562 165.351562 492.746094 162.882812 495.011719 158.117188 C 497.871094 152.105469 494.660156 144.972656 488.269531 143.097656 C 465.707031 136.480469 441.863281 134.390625 418.246094 137.1875 C 412.597656 137.855469 408.425781 142.785156 408.710938 148.464844 Z M 408.710938 148.464844 " fill-opacity="1" fill-rule="nonzero"/><path fill="#ffffff" d="M 538.925781 174.886719 C 535.4375 171.585938 531.824219 168.445312 528.097656 165.464844 C 523.1875 161.53125 515.941406 162.71875 512.464844 167.964844 L 512.398438 168.066406 C 509.328125 172.703125 510.300781 178.90625 514.636719 182.382812 C 517.859375 184.96875 520.984375 187.691406 524 190.546875 C 528.4375 194.742188 535.4375 194.511719 539.496094 189.949219 L 539.578125 189.855469 C 543.445312 185.511719 543.152344 178.882812 538.925781 174.886719 Z M 538.925781 174.886719 " fill-opacity="1" fill-rule="nonzero"/></svg>